<svg width="39" height="27" viewBox="0 0 39 27" fill="none" xmlns="http://www.w3.org/2000/svg">
<g id="path3123 2" clip-path="url(#clip0_168_2235)">
<g id="layer1">
<path id="path3123" d="M24.1787 26.5C25.3519 26.5 26.303 25.4872 26.303 24.2379C26.303 22.9886 25.3519 21.9759 24.1787 21.9759C23.0055 21.9759 22.0544 22.9886 22.0544 24.2379C22.0544 25.4872 23.0055 26.5 24.1787 26.5Z" fill="#EAEAEA"/>
<path id="rect5596" d="M19.0896 0.536211C18.7781 0.560504 18.4824 0.751879 18.3138 1.07755L6.8376 23.2553L2.26231 14.4158L7.67417 3.96071C7.94382 3.43964 7.78529 2.77839 7.31825 2.47755C6.8512 2.17671 6.2585 2.35357 5.98885 2.87464L0.31842 13.8303C0.212876 14.0343 0.173628 14.2599 0.192173 14.4769C0.195073 14.6551 0.232534 14.8352 0.318422 15.0012L5.98733 25.9586C6.1779 26.3268 6.53129 26.5208 6.88627 26.4982C6.90521 26.4974 6.92373 26.4956 6.94254 26.493C6.97684 26.4895 7.01079 26.4822 7.04446 26.4743H7.04606C7.30615 26.4127 7.54239 26.2368 7.68641 25.9585L20.0007 2.16361C20.2703 1.64254 20.1103 0.981294 19.6432 0.680454C19.4681 0.567638 19.2765 0.521637 19.0896 0.536211Z" fill="#EAEAEA"/>
<path id="rect5609" d="M24.5126 0.951077L12.0867 24.9629C11.849 25.4222 12.0338 26.0376 12.4994 26.3375C12.965 26.6374 13.5351 26.5082 13.7728 26.0489L26.1987 2.03714C26.4364 1.57785 26.2516 0.962394 25.786 0.662486C25.3204 0.362577 24.7503 0.491784 24.5126 0.951077Z" fill="#EAEAEA"/>
<path id="rect5834" d="M30.2493 2.35312C30.6924 2.34272 31.1265 2.53791 31.3645 2.89614L38.6458 13.8518C38.7662 14.033 38.818 14.2312 38.8118 14.4254C38.818 14.6195 38.7662 14.8177 38.6458 14.999L31.3645 25.9563C31.0183 26.4774 30.2572 26.6543 29.6575 26.3534C29.0578 26.0526 28.8542 25.3913 29.2005 24.8703L36.1399 14.4254L29.2005 3.98221C28.8542 3.46114 29.0578 2.79989 29.6575 2.49905C29.8449 2.40504 30.0479 2.35784 30.2493 2.35312Z" fill="#EAEAEA"/>
</g>
</g>
<defs>
<clipPath id="clip0_168_2235">
<rect width="38.6245" height="26" fill="white" transform="translate(0.187744 0.5)"/>
</clipPath>
</defs>
</svg>
