<?xml version="1.0" standalone="no"?>
<!DOCTYPE svg PUBLIC "-//W3C//DTD SVG 20010904//EN"
 "http://www.w3.org/TR/2001/REC-SVG-20010904/DTD/svg10.dtd">
<svg version="1.0" xmlns="http://www.w3.org/2000/svg"
 width="1248.000000pt" height="1248.000000pt" viewBox="0 0 1248.000000 1248.000000"
 preserveAspectRatio="xMidYMid meet">
<metadata>
Created by potrace 1.14, written by Peter Selinger 2001-2017
</metadata>
<g transform="translate(0.000000,1248.000000) scale(0.100000,-0.100000)"
fill="#000000" stroke="none">
<path d="M8030 11061 c-62 -20 -136 -86 -164 -145 -21 -46 -70 -154 -95 -211
-37 -84 -48 -107 -82 -180 -18 -38 -32 -73 -31 -77 1 -5 -2 -8 -6 -8 -4 0 -9
-10 -9 -22 -1 -13 -7 -24 -13 -26 -5 -2 -10 -8 -10 -13 0 -10 -10 -34 -81
-188 -22 -46 -39 -90 -39 -97 0 -8 -4 -14 -10 -14 -5 0 -10 -6 -10 -13 0 -8
-6 -27 -14 -43 -25 -51 -96 -205 -96 -209 0 -2 -15 -36 -33 -77 -102 -222
-177 -394 -176 -402 0 -5 -3 -12 -8 -15 -5 -3 -39 -76 -77 -161 -38 -85 -82
-184 -99 -220 -49 -110 -159 -354 -170 -380 -6 -14 -10 -28 -9 -32 1 -5 -2 -8
-8 -8 -5 0 -10 -4 -10 -9 0 -5 -12 -35 -27 -67 -14 -33 -26 -62 -25 -66 1 -5
-3 -8 -10 -8 -6 0 -8 -3 -5 -7 4 -3 1 -16 -6 -27 -7 -12 -21 -39 -29 -61 -9
-22 -30 -69 -46 -105 -40 -87 -72 -157 -149 -330 -36 -80 -77 -170 -91 -200
-14 -30 -26 -57 -27 -60 0 -3 -8 -21 -17 -40 -22 -47 -62 -135 -110 -245 -22
-49 -50 -112 -63 -140 -13 -27 -41 -90 -63 -140 -22 -49 -54 -121 -72 -160
-34 -74 -46 -103 -50 -120 -1 -5 -5 -14 -10 -20 -4 -5 -45 -93 -90 -195 -45
-102 -87 -194 -93 -205 -6 -11 -12 -24 -13 -30 -1 -5 -27 -63 -58 -129 -31
-65 -56 -120 -56 -121 0 -2 -16 -39 -36 -82 -20 -43 -42 -91 -49 -108 -7 -16
-29 -65 -49 -108 -20 -44 -36 -80 -36 -82 0 -4 -44 -101 -96 -213 -19 -40 -34
-74 -34 -76 0 -3 -16 -39 -36 -83 -20 -43 -42 -91 -49 -108 -21 -48 -74 -165
-101 -222 -13 -28 -24 -57 -24 -62 0 -6 -5 -11 -12 -11 -6 0 -9 -3 -6 -6 4 -3
-10 -40 -29 -82 -19 -42 -44 -97 -55 -122 -11 -25 -31 -70 -45 -100 -14 -30
-31 -69 -39 -86 -7 -16 -26 -59 -42 -95 -16 -35 -42 -91 -56 -124 -15 -33 -35
-76 -44 -95 -9 -19 -15 -38 -14 -42 1 -5 -2 -8 -8 -8 -6 0 -9 -3 -8 -7 1 -5
-6 -26 -16 -48 -9 -22 -18 -42 -18 -45 -1 -3 -11 -25 -24 -50 -12 -25 -31 -65
-42 -90 -71 -160 -158 -353 -179 -400 -14 -30 -33 -73 -43 -95 -10 -22 -30
-67 -46 -100 -15 -33 -29 -62 -29 -65 -1 -6 -24 -58 -53 -120 -20 -44 -330
-731 -360 -800 -9 -19 -15 -38 -14 -43 1 -4 -2 -7 -8 -7 -5 0 -10 -6 -10 -14
0 -8 -9 -31 -19 -53 -47 -95 -92 -198 -108 -246 -18 -52 -23 -169 -10 -234 6
-31 54 -143 66 -153 3 -3 21 -22 39 -43 17 -21 32 -34 32 -30 0 4 4 3 8 -2 10
-16 72 -58 72 -49 0 3 7 1 16 -7 27 -22 137 -21 190 2 74 33 115 84 177 223
31 69 57 130 57 136 0 5 5 10 10 10 6 0 10 6 10 13 0 12 56 141 135 312 62
133 99 215 120 265 13 30 42 95 64 143 23 49 41 90 41 92 0 1 18 42 41 91 52
111 63 137 61 147 -1 4 3 7 9 7 5 0 7 5 4 10 -3 6 -1 10 4 10 6 0 11 7 11 15
0 9 8 30 17 48 9 18 18 34 18 37 3 9 22 54 63 142 22 47 38 89 34 92 -3 3 0 6
6 6 7 0 12 4 12 9 0 5 13 38 29 73 16 35 59 131 96 213 37 83 89 197 115 255
26 58 58 128 70 155 12 28 32 73 45 100 52 114 75 166 75 169 0 3 15 37 34 78
19 40 85 186 146 323 62 138 130 288 152 335 22 47 41 90 42 95 1 6 14 35 28
65 37 77 98 211 98 215 0 2 16 38 35 79 19 42 35 81 35 86 0 6 4 10 10 10 5 0
9 3 8 8 -2 10 79 202 103 242 5 8 12 22 15 30 10 25 31 71 60 135 15 33 28 62
29 65 1 4 14 34 55 125 5 11 26 56 46 100 21 44 37 83 36 88 -1 4 2 7 6 7 4 0
8 10 9 21 1 12 9 29 17 38 9 10 16 23 16 29 0 11 51 127 71 162 5 8 14 26 19
40 6 14 13 32 17 40 3 8 7 17 8 20 1 3 11 25 22 50 45 95 93 202 93 205 0 2
20 46 45 99 25 53 45 99 45 101 0 2 20 48 45 101 25 53 45 97 45 99 0 2 16 39
36 82 20 43 57 123 81 178 25 55 55 120 66 145 12 25 22 47 22 50 1 3 8 21 17
40 9 19 37 82 63 140 25 58 55 121 65 142 10 20 16 39 13 42 -4 3 -1 6 5 6 7
0 12 6 12 13 0 6 24 65 54 129 30 64 51 119 48 122 -3 3 0 6 6 6 7 0 12 4 12
9 0 5 13 38 29 73 16 35 30 66 31 70 0 4 16 39 35 78 19 38 35 72 35 74 0 3
11 30 25 60 14 30 25 60 25 65 0 6 5 11 10 11 6 0 10 9 10 20 0 11 4 20 8 20
5 0 9 6 9 13 1 16 209 479 223 495 6 6 9 12 6 12 -3 0 11 35 31 78 66 144 76
167 77 173 2 15 52 115 61 121 5 4 7 8 2 8 -4 0 6 27 23 60 16 33 30 66 30 75
0 8 5 15 10 15 6 0 10 8 10 18 0 9 7 26 15 36 8 10 12 23 9 27 -3 5 0 9 5 9 6
0 10 3 9 8 -1 4 8 27 19 52 11 25 42 92 68 150 26 58 57 125 68 150 11 25 21
47 22 50 0 3 11 28 24 55 100 214 29 467 -160 570 -55 29 -151 42 -199 26z"/>
<path d="M6018 11027 c-44 -21 -75 -45 -103 -80 -45 -56 -56 -74 -59 -90 -1
-7 -12 -32 -23 -57 -12 -25 -42 -92 -68 -150 -26 -58 -57 -126 -70 -152 -13
-25 -21 -49 -18 -52 4 -3 1 -6 -5 -6 -7 0 -11 -3 -10 -7 1 -9 -5 -25 -50 -123
-59 -130 -84 -186 -102 -225 -10 -22 -28 -62 -40 -90 -82 -184 -123 -273 -135
-297 -8 -14 -15 -33 -15 -42 0 -9 -4 -16 -10 -16 -5 0 -10 -9 -10 -19 0 -11
-5 -23 -10 -26 -6 -4 -8 -11 -5 -16 4 -5 1 -9 -4 -9 -6 0 -11 -6 -11 -13 0 -8
-16 -46 -35 -86 -19 -39 -35 -78 -35 -85 0 -8 -5 -16 -11 -18 -5 -2 -11 -10
-12 -18 -2 -8 -10 -30 -20 -49 -9 -19 -17 -40 -17 -48 0 -7 -5 -13 -10 -13 -6
0 -9 -3 -8 -7 1 -5 -4 -19 -9 -33 -13 -30 -110 -244 -143 -315 -13 -27 -25
-54 -26 -60 -2 -10 -58 -133 -110 -241 -13 -28 -24 -54 -24 -57 0 -3 -22 -53
-50 -112 -27 -59 -50 -108 -50 -110 0 -2 -13 -32 -29 -67 -69 -148 -181 -400
-181 -409 0 -5 -5 -9 -11 -9 -5 0 -8 -4 -4 -9 3 -5 1 -12 -5 -16 -5 -3 -10
-15 -10 -26 0 -10 -4 -19 -10 -19 -5 0 -10 -7 -10 -15 0 -17 -32 -87 -43 -96
-5 -3 -9 -10 -9 -15 -1 -13 -11 -40 -52 -127 -20 -43 -36 -84 -36 -92 0 -7 -7
-18 -15 -25 -8 -7 -15 -21 -15 -31 0 -9 -7 -25 -16 -33 -8 -9 -13 -16 -10 -16
3 0 -11 -35 -30 -77 -20 -43 -42 -91 -49 -108 -7 -16 -27 -61 -44 -98 -17 -38
-31 -73 -31 -78 0 -5 -4 -9 -8 -9 -5 0 -9 -6 -9 -12 0 -7 -21 -57 -47 -111
-25 -54 -46 -100 -46 -102 0 -2 -18 -43 -40 -90 -22 -47 -40 -88 -40 -91 0 -2
-13 -32 -29 -66 -72 -155 -111 -240 -111 -244 0 -2 -14 -34 -32 -71 -17 -38
-32 -70 -33 -73 -3 -11 -25 -59 -60 -135 -20 -44 -52 -114 -70 -155 -28 -66
-57 -130 -99 -220 -6 -14 -15 -28 -21 -32 -5 -4 -6 -8 -1 -8 5 0 3 -7 -4 -15
-7 -8 -10 -15 -6 -15 3 0 -8 -26 -25 -57 -17 -32 -30 -58 -29 -58 3 0 -73
-174 -145 -330 -38 -83 -68 -150 -70 -155 0 -3 -13 -31 -28 -63 -15 -31 -26
-58 -25 -60 1 -1 -5 -15 -15 -32 -9 -16 -27 -55 -41 -85 -13 -30 -70 -156
-126 -280 -55 -124 -102 -229 -103 -235 -1 -5 -4 -12 -8 -15 -3 -3 -16 -30
-28 -60 -13 -30 -34 -77 -46 -105 -13 -27 -34 -75 -48 -105 -46 -103 -69 -155
-87 -195 -10 -22 -60 -132 -110 -245 -51 -113 -96 -207 -101 -208 -5 -2 -7 -7
-4 -12 3 -4 -16 -52 -42 -106 -26 -55 -47 -101 -48 -104 0 -3 -6 -15 -13 -28
-7 -12 -10 -22 -6 -22 4 0 -1 -9 -11 -20 -10 -11 -15 -20 -12 -20 4 0 -2 -17
-12 -37 -10 -21 -36 -76 -57 -123 -21 -47 -43 -93 -50 -103 -11 -18 -13 -17
-19 5 -8 24 -73 172 -131 296 -19 40 -34 74 -34 76 0 2 -16 39 -36 83 -20 43
-47 101 -59 128 -13 28 -50 111 -83 185 -33 74 -71 160 -85 190 -14 30 -35 78
-47 105 -13 28 -68 149 -122 270 -95 211 -110 244 -142 318 -8 17 -28 61 -44
97 -28 60 -141 310 -191 425 -12 28 -29 64 -36 80 -8 17 -32 70 -54 118 -23
49 -41 91 -41 93 0 2 -15 36 -34 76 -51 111 -81 178 -166 368 -43 96 -90 202
-106 235 -15 33 -28 62 -29 65 0 3 -6 15 -13 27 -11 19 -9 30 9 70 12 27 27
62 34 78 57 128 197 440 216 479 10 22 19 46 19 53 0 7 4 13 8 13 4 0 14 20
21 45 7 24 19 49 27 56 8 6 14 17 14 24 0 7 17 48 37 91 20 43 38 81 38 84 1
3 10 23 20 45 10 22 19 42 20 45 0 3 14 32 29 65 16 33 75 165 133 294 126
283 137 307 178 396 17 39 53 120 79 180 26 61 52 117 57 125 5 8 12 22 15 30
3 8 15 35 27 60 11 25 31 70 44 100 44 98 51 114 92 203 23 49 41 90 41 92 0
1 19 43 42 92 23 48 43 93 44 98 1 6 19 46 39 90 21 44 64 141 98 215 33 74
69 155 80 180 12 25 22 47 22 50 1 3 10 23 22 45 11 22 21 42 21 45 1 6 42 97
88 198 19 40 34 74 34 76 0 2 18 44 40 93 23 48 45 97 49 108 27 64 31 77 26
85 -3 5 -1 11 4 14 5 3 8 22 7 41 -1 19 2 35 6 35 3 0 3 14 -2 30 -5 19 -5 30
1 30 6 0 7 5 4 10 -7 11 -15 52 -18 83 -1 9 -4 17 -7 17 -4 0 -7 6 -7 13 -1
41 -109 197 -138 197 -4 0 -16 6 -24 13 -45 39 -176 45 -228 11 -13 -8 -23
-12 -23 -9 0 5 -29 -18 -76 -62 -13 -12 -24 -26 -24 -31 0 -5 -6 -15 -14 -21
-7 -6 -35 -60 -61 -119 -78 -175 -185 -412 -221 -490 -19 -41 -34 -80 -34 -88
0 -8 -4 -14 -10 -14 -5 0 -10 -5 -10 -11 0 -5 -11 -34 -24 -62 -13 -29 -33
-74 -46 -102 -12 -27 -32 -72 -45 -100 -12 -27 -53 -117 -90 -200 -37 -82 -77
-170 -88 -195 -12 -25 -20 -48 -19 -52 1 -5 -2 -8 -7 -8 -5 0 -12 -16 -15 -35
-4 -19 -11 -35 -16 -35 -6 0 -10 -4 -10 -10 0 -5 -13 -39 -30 -75 -16 -36 -30
-67 -30 -69 0 -2 -20 -47 -45 -100 -25 -53 -45 -99 -45 -101 0 -2 -13 -33 -30
-68 -16 -36 -30 -70 -30 -76 0 -6 -4 -11 -9 -11 -5 0 -12 -11 -15 -25 -4 -14
-22 -57 -40 -95 -19 -39 -32 -70 -29 -70 3 0 1 -6 -5 -12 -6 -7 -28 -53 -50
-103 -22 -49 -51 -116 -66 -147 -14 -31 -26 -59 -26 -61 0 -3 -23 -54 -51
-113 -27 -60 -56 -122 -64 -139 -7 -16 -11 -33 -9 -37 3 -4 1 -8 -4 -8 -6 0
-21 -28 -35 -62 -14 -35 -32 -76 -41 -93 -9 -16 -16 -36 -16 -42 0 -7 -4 -13
-8 -13 -5 0 -9 -6 -9 -12 -1 -13 -84 -199 -93 -208 -3 -3 -6 -11 -8 -19 -2
-12 -55 -130 -123 -276 -13 -27 -24 -52 -24 -55 -3 -9 -37 -85 -76 -168 -21
-46 -39 -85 -39 -87 0 -2 -18 -43 -41 -92 -22 -48 -47 -104 -55 -123 -8 -19
-19 -42 -24 -52 -26 -47 -40 -140 -35 -234 5 -133 0 -119 197 -551 11 -27 21
-54 21 -60 0 -7 4 -13 8 -13 4 0 11 -10 14 -21 4 -12 25 -61 47 -108 21 -47
43 -95 48 -106 5 -11 22 -49 38 -85 62 -136 71 -157 110 -245 22 -49 54 -120
71 -158 17 -37 31 -72 31 -77 0 -6 5 -10 12 -10 6 0 9 -3 6 -6 -5 -5 42 -115
138 -322 19 -41 34 -75 34 -78 0 -5 69 -154 86 -186 8 -16 12 -28 8 -28 -4 0
0 -8 9 -17 8 -10 16 -21 17 -25 0 -4 9 -27 19 -50 17 -41 27 -63 88 -198 14
-30 31 -68 38 -85 7 -16 31 -70 54 -118 23 -49 41 -90 41 -92 0 -2 15 -36 34
-77 18 -40 61 -136 96 -213 67 -150 94 -211 131 -290 13 -27 23 -52 24 -55 0
-3 8 -21 17 -40 48 -104 92 -201 111 -245 11 -27 23 -52 26 -55 4 -3 7 -10 8
-17 1 -6 15 -40 31 -75 16 -34 39 -85 51 -113 13 -27 36 -77 52 -110 16 -33
29 -68 29 -78 0 -9 3 -17 8 -17 4 0 16 -21 26 -48 11 -26 42 -94 69 -152 26
-58 49 -107 50 -110 1 -3 18 -21 37 -40 91 -92 182 -119 287 -84 74 25 174
111 172 148 -1 5 3 12 8 15 8 5 63 115 63 126 0 2 20 48 45 101 25 53 45 102
45 110 0 8 5 14 10 14 6 0 10 6 10 13 0 6 10 32 22 57 12 25 22 47 23 50 4 12
26 61 60 135 20 44 44 96 52 115 9 19 25 55 37 80 11 25 21 47 22 50 0 3 10
25 21 50 54 120 67 149 88 195 13 28 56 122 95 210 39 88 82 183 95 210 12 28
30 66 38 85 50 114 79 178 92 201 8 14 12 28 9 31 -2 3 2 11 11 18 8 7 15 18
15 25 0 6 33 85 74 173 41 89 72 162 69 162 -3 0 -1 6 5 13 6 7 44 85 83 173
39 87 81 179 92 204 12 25 22 47 22 50 1 3 8 19 15 35 7 17 14 36 16 44 1 8 8
17 14 21 7 4 11 9 10 11 -3 6 139 328 235 534 13 28 25 57 27 65 2 8 9 21 16
28 7 8 10 18 7 23 -4 5 -1 9 4 9 6 0 11 6 11 13 0 7 9 29 20 50 11 20 17 37
14 37 -4 0 -2 6 4 13 5 6 51 104 102 217 51 113 105 233 121 268 16 35 29 65
29 67 0 2 18 43 41 92 41 89 46 101 94 208 15 33 34 76 43 95 9 19 16 37 17
40 1 3 11 26 23 53 12 26 22 51 22 55 1 4 9 15 17 25 9 9 13 17 10 17 -3 0 11
37 32 83 61 131 123 268 126 277 2 7 35 80 79 173 20 43 36 80 36 82 0 2 20
48 45 101 25 53 45 102 45 109 0 7 7 18 15 25 8 7 15 17 15 22 0 17 134 313
145 320 5 4 6 8 2 8 -4 0 -2 10 5 23 7 12 13 24 13 27 1 3 13 30 27 60 14 30
38 84 53 120 15 36 32 68 37 71 5 3 9 9 7 13 -1 4 10 33 24 64 65 145 77 173
77 182 0 6 5 10 10 10 6 0 9 3 8 8 -1 8 13 45 42 107 72 154 90 194 90 198 0
3 15 38 34 79 39 85 74 163 106 233 12 28 36 79 52 115 16 36 37 83 46 105 8
22 20 43 24 46 5 3 10 16 11 27 1 12 5 22 9 22 4 0 8 6 8 13 0 7 13 39 29 70
16 31 28 57 26 57 -2 0 9 27 26 59 16 33 29 62 29 64 0 3 18 45 41 94 55 118
74 161 92 203 48 110 200 446 213 472 8 15 14 30 14 33 0 3 13 32 30 65 17 33
30 62 30 65 0 3 6 18 14 33 7 15 25 54 39 87 14 33 38 89 55 125 48 106 50
115 67 222 2 15 0 30 -6 33 -6 4 -5 13 1 24 5 10 8 20 6 22 -2 2 -7 21 -10 41
-27 172 -154 306 -298 313 -48 2 -69 -2 -120 -28z"/>
<path d="M9630 10369 c-19 -5 -39 -11 -45 -12 -52 -15 -195 -126 -195 -152 0
-4 -6 -16 -13 -24 -18 -22 -48 -103 -52 -143 -2 -18 -4 -35 -5 -38 -3 -6 -3
-4 4 -65 7 -62 21 -104 60 -175 31 -58 36 -67 104 -181 23 -39 42 -76 42 -80
0 -5 5 -9 10 -9 6 0 10 -5 10 -11 0 -9 79 -151 128 -229 9 -14 15 -26 14 -27
0 -1 30 -54 69 -118 38 -64 69 -120 69 -124 0 -5 7 -14 15 -21 8 -7 13 -16 10
-20 -3 -5 -2 -10 3 -12 7 -3 64 -99 123 -205 47 -86 54 -98 60 -103 3 -3 19
-30 36 -61 33 -61 177 -309 202 -349 8 -14 16 -27 16 -30 0 -3 10 -21 21 -40
12 -19 70 -118 128 -220 59 -102 114 -196 122 -210 8 -14 18 -33 21 -42 3 -10
9 -18 14 -18 5 0 9 -4 9 -9 0 -8 80 -150 119 -211 8 -14 16 -27 16 -30 0 -3 8
-16 16 -30 21 -32 80 -133 109 -185 25 -44 36 -63 160 -278 47 -81 90 -155 95
-165 9 -16 63 -108 130 -222 14 -25 28 -53 32 -62 3 -10 9 -18 14 -18 5 0 9
-5 9 -10 0 -9 127 -235 168 -300 9 -14 17 -27 17 -30 0 -3 12 -23 26 -45 14
-22 41 -68 60 -103 l34 -63 -21 -37 c-11 -20 -65 -113 -119 -207 -54 -93 -105
-181 -112 -195 -8 -14 -23 -38 -33 -55 -11 -16 -23 -37 -27 -45 -4 -8 -20 -37
-36 -65 -37 -62 -62 -107 -95 -165 -13 -25 -28 -49 -32 -55 -4 -5 -18 -28 -30
-50 -30 -54 -282 -491 -309 -535 -11 -19 -24 -42 -28 -50 -3 -8 -9 -17 -12
-20 -3 -3 -16 -25 -29 -50 -12 -25 -47 -85 -77 -135 -30 -49 -58 -97 -62 -105
-4 -8 -45 -80 -91 -160 -46 -80 -96 -165 -110 -190 -43 -76 -86 -151 -97 -168
-6 -9 -30 -53 -54 -97 -25 -44 -47 -82 -50 -85 -3 -3 -11 -14 -17 -25 -46 -87
-160 -281 -166 -283 -5 -2 -8 -8 -8 -13 0 -5 -38 -75 -85 -155 -47 -81 -85
-150 -85 -155 0 -6 -7 -12 -15 -15 -8 -4 -13 -10 -10 -14 3 -4 -4 -19 -15 -33
-11 -14 -20 -28 -20 -31 0 -10 -94 -171 -102 -174 -5 -2 -8 -7 -8 -12 0 -5
-22 -47 -50 -95 -27 -48 -50 -91 -50 -96 0 -5 -3 -9 -7 -9 -5 0 -19 -23 -32
-50 -14 -28 -29 -50 -33 -50 -4 0 -8 -9 -8 -20 0 -11 -4 -20 -10 -20 -5 0 -10
-4 -10 -9 0 -12 -62 -114 -75 -123 -5 -4 -6 -8 -2 -8 5 0 0 -15 -11 -32 -21
-35 -41 -92 -48 -136 -18 -111 31 -259 111 -337 48 -47 85 -77 85 -70 0 3 10
-1 23 -9 38 -25 135 -48 190 -45 107 5 219 55 285 128 33 36 142 214 142 232
0 5 5 9 10 9 6 0 10 4 10 9 0 4 30 60 66 122 37 63 80 139 97 169 17 30 34 57
39 58 4 2 8 8 8 13 0 5 50 96 112 202 61 105 118 207 127 225 8 17 19 32 23
32 4 0 8 5 8 11 0 6 9 24 21 40 11 16 17 29 12 29 -4 0 -3 4 3 8 6 4 24 32 41
62 16 30 51 90 76 133 26 43 47 83 47 88 0 5 4 9 8 9 4 0 13 12 19 27 7 16 20
42 30 58 10 17 45 77 78 135 33 58 63 107 67 108 4 2 8 9 8 17 0 7 7 18 15 25
8 7 13 16 10 20 -3 4 2 13 10 20 8 7 15 16 15 21 0 5 16 33 35 63 19 30 35 57
35 60 0 5 26 49 75 131 7 11 12 23 11 26 -1 4 6 15 15 25 9 11 42 66 75 124
32 58 61 107 64 110 3 3 19 31 35 62 17 32 33 58 36 58 4 0 10 11 13 24 3 14
12 31 19 38 7 7 21 29 31 48 9 19 23 44 29 55 7 11 30 52 52 90 21 39 43 72
47 73 4 2 8 8 8 14 0 8 17 39 100 179 8 14 38 65 65 113 28 48 65 113 83 144
18 32 38 68 45 82 6 14 14 27 18 30 3 3 23 37 44 75 22 39 43 72 47 73 4 2 8
8 8 13 0 9 49 95 129 229 11 19 24 42 28 50 4 8 33 59 65 113 32 55 58 102 58
106 0 4 10 19 22 34 12 15 23 33 25 40 1 6 11 36 22 66 25 72 25 185 0 269
-11 34 -24 62 -29 62 -6 0 -10 6 -10 14 0 8 -29 64 -65 125 -36 60 -65 112
-65 116 0 3 -5 11 -10 18 -12 13 -103 166 -109 182 -2 6 -9 19 -16 30 -38 62
-85 147 -85 156 0 5 -4 9 -9 9 -5 0 -11 8 -14 18 -4 9 -21 42 -39 72 -18 31
-51 87 -72 125 -22 39 -45 73 -50 77 -6 4 -8 8 -4 8 4 0 -14 35 -40 78 -26 42
-54 91 -62 107 -8 17 -17 32 -20 35 -3 3 -12 19 -20 35 -8 17 -19 35 -23 40
-5 6 -75 127 -157 270 -82 143 -153 265 -159 271 -5 7 -7 15 -4 18 4 3 1 6 -5
6 -7 0 -12 4 -12 10 0 5 -24 50 -54 100 -30 49 -51 90 -48 90 4 0 2 4 -4 8 -6
4 -40 59 -76 122 -90 160 -92 164 -98 170 -6 6 -49 84 -64 117 -6 13 -14 23
-18 23 -5 0 -8 4 -8 9 0 5 -27 55 -60 111 -33 56 -60 104 -60 107 0 3 -13 24
-28 47 -15 22 -34 56 -41 74 -7 17 -17 32 -21 32 -4 0 -10 8 -13 18 -3 9 -21
42 -39 74 -18 31 -51 87 -72 125 -22 37 -43 70 -48 71 -4 2 -8 10 -8 18 0 7
-16 38 -35 68 -19 30 -35 60 -35 66 0 5 -4 10 -10 10 -5 0 -10 5 -10 11 0 8
-77 147 -126 226 -8 13 -14 26 -13 29 0 4 -3 10 -8 13 -4 3 -13 15 -19 26 -10
18 -101 175 -179 310 -11 19 -33 58 -49 87 -16 29 -37 65 -47 80 -11 14 -19
30 -19 35 0 5 -24 34 -53 65 -76 79 -161 118 -269 123 -46 2 -99 0 -118 -6z"/>
<path d="M7717 3084 c-1 -1 -21 -4 -44 -7 -59 -9 -96 -18 -110 -30 -7 -5 -13
-7 -13 -3 0 9 -77 -32 -141 -75 -64 -43 -140 -123 -191 -201 -34 -51 -89 -160
-92 -182 -1 -6 -4 -15 -7 -21 -4 -5 -10 -23 -14 -40 -45 -170 -50 -329 -16
-500 17 -84 78 -245 93 -245 5 0 8 -7 8 -15 0 -31 127 -182 203 -243 55 -43
152 -87 238 -109 52 -13 189 -11 250 3 61 14 179 67 214 96 10 7 40 34 67 61
28 26 55 47 59 47 5 0 9 6 9 13 0 7 10 23 23 37 21 23 81 118 82 130 1 3 8 19
17 35 16 30 62 175 73 230 12 61 12 271 -1 340 -16 89 -20 103 -34 140 -6 17
-11 30 -10 30 4 0 -25 66 -49 115 -109 215 -301 362 -503 386 -57 7 -108 11
-111 8z"/>
</g>
</svg>
