<svg width="39" height="27" fill="none" xmlns="http://www.w3.org/2000/svg"><g id="path3123 2" clip-path="url('#clip0_168_2235')"><g id="layer1" fill="#EAEAEA"><path id="path3123" d="M24.179 26.5c1.173 0 2.124-1.013 2.124-2.262 0-1.25-.951-2.262-2.124-2.262s-2.125 1.013-2.125 2.262c0 1.25.952 2.262 2.125 2.262Z"/><path id="rect5596" d="M19.09.536a.967.967 0 0 0-.776.542L6.838 23.255l-4.576-8.84L7.674 3.962c.27-.521.111-1.183-.356-1.483-.467-.301-1.06-.124-1.33.397L.319 13.83c-.105.204-.144.43-.126.647.003.178.04.358.126.524l5.67 10.958c.19.368.543.562.898.54a.807.807 0 0 0 .158-.024h.002a.977.977 0 0 0 .64-.517L20.001 2.165c.27-.521.11-1.183-.358-1.484a.887.887 0 0 0-.553-.144Z"/><path id="rect5609" d="M24.513.951 12.087 24.963c-.238.46-.053 1.075.412 1.374.466.3 1.036.171 1.274-.288L26.199 2.037c.237-.46.053-1.075-.413-1.375-.466-.3-1.036-.17-1.273.29Z"/><path id="rect5834" d="M30.25 2.353c.442-.01.877.185 1.114.543l7.282 10.956c.12.181.172.38.166.573a.972.972 0 0 1-.166.574l-7.282 10.957c-.346.521-1.107.698-1.707.397-.6-.3-.803-.962-.456-1.483l6.939-10.445L29.2 3.982c-.346-.52-.142-1.182.457-1.483.188-.094.39-.141.592-.146Z"/></g></g><defs><clipPath id="clip0_168_2235"><path fill="#fff" transform="translate(.188 .5)" d="M0 0h38.624v26H0z"/></clipPath></defs></svg>