<svg version="1.0" xmlns="http://www.w3.org/2000/svg" width="1664" height="1664" viewBox="0 0 1248 1248"><path d="M803 141.9c-6.2 2-13.6 8.6-16.4 14.5-2.1 4.6-7 15.4-9.5 21.1-3.7 8.4-4.8 10.7-8.2 18-1.8 3.8-3.2 7.3-3.1 7.7.1.5-.2.8-.6.8-.4 0-.9 1-.9 2.2-.1 1.3-.7 2.4-1.3 2.6-.5.2-1 .8-1 1.3 0 1-1 3.4-8.1 18.8-2.2 4.6-3.9 9-3.9 9.7 0 .8-.4 1.4-1 1.4-.5 0-1 .6-1 1.3 0 .8-.6 2.7-1.4 4.3-2.5 5.1-9.6 20.5-9.6 20.9 0 .2-1.5 3.6-3.3 7.7-10.2 22.2-17.7 39.4-17.6 40.2 0 .5-.3 1.2-.8 1.5-.5.3-3.9 7.6-7.7 16.1-3.8 8.5-8.2 18.4-9.9 22-4.9 11-15.9 35.4-17 38-.6 1.4-1 2.8-.9 3.2.1.5-.2.8-.8.8-.5 0-1 .4-1 .9s-1.2 3.5-2.7 6.7c-1.4 3.3-2.6 6.2-2.5 6.6.1.5-.3.8-1 .8-.6 0-.8.3-.5.7.4.3.1 1.6-.6 2.7-.7 1.2-2.1 3.9-2.9 6.1-.9 2.2-3 6.9-4.6 10.5-4 8.7-7.2 15.7-14.9 33-3.6 8-7.7 17-9.1 20-1.4 3-2.6 5.7-2.7 6 0 .3-.8 2.1-1.7 4-2.2 4.7-6.2 13.5-11 24.5-2.2 4.9-5 11.2-6.3 14-1.3 2.7-4.1 9-6.3 14-2.2 4.9-5.4 12.1-7.2 16-3.4 7.4-4.6 10.3-5 12-.1.5-.5 1.4-1 2-.4.5-4.5 9.3-9 19.5s-8.7 19.4-9.3 20.5c-.6 1.1-1.2 2.4-1.3 3-.1.5-2.7 6.3-5.8 12.9-3.1 6.5-5.6 12-5.6 12.1 0 .2-1.6 3.9-3.6 8.2-2 4.3-4.2 9.1-4.9 10.8-.7 1.6-2.9 6.5-4.9 10.8-2 4.4-3.6 8-3.6 8.2 0 .4-4.4 10.1-9.6 21.3-1.9 4-3.4 7.4-3.4 7.6 0 .3-1.6 3.9-3.6 8.3-2 4.3-4.2 9.1-4.9 10.8-2.1 4.8-7.4 16.5-10.1 22.2-1.3 2.8-2.4 5.7-2.4 6.2 0 .6-.5 1.1-1.2 1.1-.6 0-.9.3-.6.6.4.3-1 4-2.9 8.2-1.9 4.2-4.4 9.7-5.5 12.2-1.1 2.5-3.1 7-4.5 10s-3.1 6.9-3.9 8.6c-.7 1.6-2.6 5.9-4.2 9.5-1.6 3.5-4.2 9.1-5.6 12.4-1.5 3.3-3.5 7.6-4.4 9.5-.9 1.9-1.5 3.8-1.4 4.2.1.5-.2.8-.8.8-.6 0-.9.3-.8.7.1.5-.6 2.6-1.6 4.8-.9 2.2-1.8 4.2-1.8 4.5-.1.3-1.1 2.5-2.4 5-1.2 2.5-3.1 6.5-4.2 9-7.1 16-15.8 35.3-17.9 40-1.4 3-3.3 7.3-4.3 9.5s-3 6.7-4.6 10c-1.5 3.3-2.9 6.2-2.9 6.5-.1.6-2.4 5.8-5.3 12-2 4.4-33 73.1-36 80-.9 1.9-1.5 3.8-1.4 4.3.1.4-.2.7-.8.7-.5 0-1 .6-1 1.4 0 .8-.9 3.1-1.9 5.3-4.7 9.5-9.2 19.8-10.8 24.6-1.8 5.2-2.3 16.9-1 23.4.6 3.1 5.4 14.3 6.6 15.3.3.3 2.1 2.2 3.9 4.3 1.7 2.1 3.2 3.4 3.2 3 0-.4.4-.3.8.2 1 1.6 7.2 5.8 7.2 4.9 0-.3.7-.1 1.6.7 2.7 2.2 13.7 2.1 19-.2 7.4-3.3 11.5-8.4 17.7-22.3 3.1-6.9 5.7-13 5.7-13.6 0-.5.5-1 1-1 .6 0 1-.6 1-1.3 0-1.2 5.6-14.1 13.5-31.2 6.2-13.3 9.9-21.5 12-26.5 1.3-3 4.2-9.5 6.4-14.3 2.3-4.9 4.1-9 4.1-9.2 0-.1 1.8-4.2 4.1-9.1 5.2-11.1 6.3-13.7 6.1-14.7-.1-.4.3-.7.9-.7.5 0 .7-.5.4-1-.3-.6-.1-1 .4-1 .6 0 1.1-.7 1.1-1.5 0-.9.8-3 1.7-4.8.9-1.8 1.8-3.4 1.8-3.7.3-.9 2.2-5.4 6.3-14.2 2.2-4.7 3.8-8.9 3.4-9.2-.3-.3 0-.6.6-.6.7 0 1.2-.4 1.2-.9s1.3-3.8 2.9-7.3c1.6-3.5 5.9-13.1 9.6-21.3 3.7-8.3 8.9-19.7 11.5-25.5 2.6-5.8 5.8-12.8 7-15.5 1.2-2.8 3.2-7.3 4.5-10 5.2-11.4 7.5-16.6 7.5-16.9 0-.3 1.5-3.7 3.4-7.8 1.9-4 8.5-18.6 14.6-32.3 6.2-13.8 13-28.8 15.2-33.5 2.2-4.7 4.1-9 4.2-9.5.1-.6 1.4-3.5 2.8-6.5 3.7-7.7 9.8-21.1 9.8-21.5 0-.2 1.6-3.8 3.5-7.9 1.9-4.2 3.5-8.1 3.5-8.6 0-.6.4-1 1-1 .5 0 .9-.3.8-.8-.2-1 7.9-20.2 10.3-24.2.5-.8 1.2-2.2 1.5-3 1-2.5 3.1-7.1 6-13.5 1.5-3.3 2.8-6.2 2.9-6.5.1-.4 1.4-3.4 5.5-12.5.5-1.1 2.6-5.6 4.6-10 2.1-4.4 3.7-8.3 3.6-8.8-.1-.4.2-.7.6-.7.4 0 .8-1 .9-2.1.1-1.2.9-2.9 1.7-3.8.9-1 1.6-2.3 1.6-2.9 0-1.1 5.1-12.7 7.1-16.2.5-.8 1.4-2.6 1.9-4 .6-1.4 1.3-3.2 1.7-4 .3-.8.7-1.7.8-2 .1-.3 1.1-2.5 2.2-5 4.5-9.5 9.3-20.2 9.3-20.5 0-.2 2-4.6 4.5-9.9 2.5-5.3 4.5-9.9 4.5-10.1 0-.2 2-4.8 4.5-10.1s4.5-9.7 4.5-9.9c0-.2 1.6-3.9 3.6-8.2 2-4.3 5.7-12.3 8.1-17.8 2.5-5.5 5.5-12 6.6-14.5 1.2-2.5 2.2-4.7 2.2-5 .1-.3.8-2.1 1.7-4 .9-1.9 3.7-8.2 6.3-14 2.5-5.8 5.5-12.1 6.5-14.2 1-2 1.6-3.9 1.3-4.2-.4-.3-.1-.6.5-.6.7 0 1.2-.6 1.2-1.3 0-.6 2.4-6.5 5.4-12.9 3-6.4 5.1-11.9 4.8-12.2-.3-.3 0-.6.6-.6.7 0 1.2-.4 1.2-.9s1.3-3.8 2.9-7.3c1.6-3.5 3-6.6 3.1-7 0-.4 1.6-3.9 3.5-7.8 1.9-3.8 3.5-7.2 3.5-7.4 0-.3 1.1-3 2.5-6s2.5-6 2.5-6.5c0-.6.5-1.1 1-1.1.6 0 1-.9 1-2s.4-2 .8-2c.5 0 .9-.6.9-1.3.1-1.6 20.9-47.9 22.3-49.5.6-.6.9-1.2.6-1.2-.3 0 1.1-3.5 3.1-7.8 6.6-14.4 7.6-16.7 7.7-17.3.2-1.5 5.2-11.5 6.1-12.1.5-.4.7-.8.2-.8-.4 0 .6-2.7 2.3-6 1.6-3.3 3-6.6 3-7.5 0-.8.5-1.5 1-1.5.6 0 1-.8 1-1.8 0-.9.7-2.6 1.5-3.6s1.2-2.3.9-2.7c-.3-.5 0-.9.5-.9.6 0 1-.3.9-.8-.1-.4.8-2.7 1.9-5.2 1.1-2.5 4.2-9.2 6.8-15 2.6-5.8 5.7-12.5 6.8-15 1.1-2.5 2.1-4.7 2.2-5 0-.3 1.1-2.8 2.4-5.5 10-21.4 2.9-46.7-16-57-5.5-2.9-15.1-4.2-19.9-2.6zM601.8 145.3c-4.4 2.1-7.5 4.5-10.3 8-4.5 5.6-5.6 7.4-5.9 9-.1.7-1.2 3.2-2.3 5.7-1.2 2.5-4.2 9.2-6.8 15-2.6 5.8-5.7 12.6-7 15.2-1.3 2.5-2.1 4.9-1.8 5.2.4.3.1.6-.5.6-.7 0-1.1.3-1 .7.1.9-.5 2.5-5 12.3-5.9 13-8.4 18.6-10.2 22.5-1 2.2-2.8 6.2-4 9-8.2 18.4-12.3 27.3-13.5 29.7-.8 1.4-1.5 3.3-1.5 4.2 0 .9-.4 1.6-1 1.6-.5 0-1 .9-1 1.9 0 1.1-.5 2.3-1 2.6-.6.4-.8 1.1-.5 1.6.4.5.1.9-.4.9-.6 0-1.1.6-1.1 1.3 0 .8-1.6 4.6-3.5 8.6-1.9 3.9-3.5 7.8-3.5 8.5 0 .8-.5 1.6-1.1 1.8-.5.2-1.1 1-1.2 1.8-.2.8-1 3-2 4.9-.9 1.9-1.7 4-1.7 4.8 0 .7-.5 1.3-1 1.3-.6 0-.9.3-.8.7.1.5-.4 1.9-.9 3.3-1.3 3-11 24.4-14.3 31.5-1.3 2.7-2.5 5.4-2.6 6-.2 1-5.8 13.3-11 24.1-1.3 2.8-2.4 5.4-2.4 5.7 0 .3-2.2 5.3-5 11.2-2.7 5.9-5 10.8-5 11 0 .2-1.3 3.2-2.9 6.7-6.9 14.8-18.1 40-18.1 40.9 0 .5-.5.9-1.1.9-.5 0-.8.4-.4.9.3.5.1 1.2-.5 1.6-.5.3-1 1.5-1 2.6 0 1-.4 1.9-1 1.9-.5 0-1 .7-1 1.5 0 1.7-3.2 8.7-4.3 9.6-.5.3-.9 1-.9 1.5-.1 1.3-1.1 4-5.2 12.7-2 4.3-3.6 8.4-3.6 9.2 0 .7-.7 1.8-1.5 2.5s-1.5 2.1-1.5 3.1c0 .9-.7 2.5-1.6 3.3-.8.9-1.3 1.6-1 1.6.3 0-1.1 3.5-3 7.7-2 4.3-4.2 9.1-4.9 10.8-.7 1.6-2.7 6.1-4.4 9.8-1.7 3.8-3.1 7.3-3.1 7.8s-.4.9-.8.9c-.5 0-.9.6-.9 1.2 0 .7-2.1 5.7-4.7 11.1-2.5 5.4-4.6 10-4.6 10.2 0 .2-1.8 4.3-4 9s-4 8.8-4 9.1c0 .2-1.3 3.2-2.9 6.6-7.2 15.5-11.1 24-11.1 24.4 0 .2-1.4 3.4-3.2 7.1-1.7 3.8-3.2 7-3.3 7.3-.3 1.1-2.5 5.9-6 13.5-2 4.4-5.2 11.4-7 15.5-2.8 6.6-5.7 13-9.9 22-.6 1.4-1.5 2.8-2.1 3.2-.5.4-.6.8-.1.8s.3.7-.4 1.5-1 1.5-.6 1.5c.3 0-.8 2.6-2.5 5.7-1.7 3.2-3 5.8-2.9 5.8.3 0-7.3 17.4-14.5 33-3.8 8.3-6.8 15-7 15.5 0 .3-1.3 3.1-2.8 6.3-1.5 3.1-2.6 5.8-2.5 6 .1.1-.5 1.5-1.5 3.2-.9 1.6-2.7 5.5-4.1 8.5-1.3 3-7 15.6-12.6 28-5.5 12.4-10.2 22.9-10.3 23.5-.1.5-.4 1.2-.8 1.5-.3.3-1.6 3-2.8 6-1.3 3-3.4 7.7-4.6 10.5-1.3 2.7-3.4 7.5-4.8 10.5-4.6 10.3-6.9 15.5-8.7 19.5-1 2.2-6 13.2-11 24.5-5.1 11.3-9.6 20.7-10.1 20.8-.5.2-.7.7-.4 1.2.3.4-1.6 5.2-4.2 10.6-2.6 5.5-4.7 10.1-4.8 10.4 0 .3-.6 1.5-1.3 2.8-.7 1.2-1 2.2-.6 2.2s-.1.9-1.1 2-1.5 2-1.2 2c.4 0-.2 1.7-1.2 3.7-1 2.1-3.6 7.6-5.7 12.3-2.1 4.7-4.3 9.3-5 10.3-1.1 1.8-1.3 1.7-1.9-.5-.8-2.4-7.3-17.2-13.1-29.6-1.9-4-3.4-7.4-3.4-7.6 0-.2-1.6-3.9-3.6-8.3-2-4.3-4.7-10.1-5.9-12.8-1.3-2.8-5-11.1-8.3-18.5-3.3-7.4-7.1-16-8.5-19-1.4-3-3.5-7.8-4.7-10.5-1.3-2.8-6.8-14.9-12.2-27-9.5-21.1-11-24.4-14.2-31.8-.8-1.7-2.8-6.1-4.4-9.7-2.8-6-14.1-31-19.1-42.5-1.2-2.8-2.9-6.4-3.6-8-.8-1.7-3.2-7-5.4-11.8-2.3-4.9-4.1-9.1-4.1-9.3 0-.2-1.5-3.6-3.4-7.6C94.5 719.7 91.5 713 83 694c-4.3-9.6-9-20.2-10.6-23.5-1.5-3.3-2.8-6.2-2.9-6.5 0-.3-.6-1.5-1.3-2.7-1.1-1.9-.9-3 .9-7 1.2-2.7 2.7-6.2 3.4-7.8 5.7-12.8 19.7-44 21.6-47.9 1-2.2 1.9-4.6 1.9-5.3 0-.7.4-1.3.8-1.3s1.4-2 2.1-4.5c.7-2.4 1.9-4.9 2.7-5.6.8-.6 1.4-1.7 1.4-2.4s1.7-4.8 3.7-9.1 3.8-8.1 3.8-8.4c.1-.3 1-2.3 2-4.5s1.9-4.2 2-4.5c0-.3 1.4-3.2 2.9-6.5 1.6-3.3 7.5-16.5 13.3-29.4 12.6-28.3 13.7-30.7 17.8-39.6 1.7-3.9 5.3-12 7.9-18 2.6-6.1 5.2-11.7 5.7-12.5.5-.8 1.2-2.2 1.5-3 .3-.8 1.5-3.5 2.7-6 1.1-2.5 3.1-7 4.4-10 4.4-9.8 5.1-11.4 9.2-20.3 2.3-4.9 4.1-9 4.1-9.2 0-.1 1.9-4.3 4.2-9.2 2.3-4.8 4.3-9.3 4.4-9.8.1-.6 1.9-4.6 3.9-9 2.1-4.4 6.4-14.1 9.8-21.5 3.3-7.4 6.9-15.5 8-18 1.2-2.5 2.2-4.7 2.2-5 .1-.3 1-2.3 2.2-4.5 1.1-2.2 2.1-4.2 2.1-4.5.1-.6 4.2-9.7 8.8-19.8 1.9-4 3.4-7.4 3.4-7.6 0-.2 1.8-4.4 4-9.3 2.3-4.8 4.5-9.7 4.9-10.8 2.7-6.4 3.1-7.7 2.6-8.5-.3-.5-.1-1.1.4-1.4.5-.3.8-2.2.7-4.1-.1-1.9.2-3.5.6-3.5.3 0 .3-1.4-.2-3-.5-1.9-.5-3 .1-3s.7-.5.4-1c-.7-1.1-1.5-5.2-1.8-8.3-.1-.9-.4-1.7-.7-1.7-.4 0-.7-.6-.7-1.3-.1-4.1-10.9-19.7-13.8-19.7-.4 0-1.6-.6-2.4-1.3-4.5-3.9-17.6-4.5-22.8-1.1-1.3.8-2.3 1.2-2.3.9 0-.5-2.9 1.8-7.6 6.2-1.3 1.2-2.4 2.6-2.4 3.1s-.6 1.5-1.4 2.1c-.7.6-3.5 6-6.1 11.9-7.8 17.5-18.5 41.2-22.1 49-1.9 4.1-3.4 8-3.4 8.8 0 .8-.4 1.4-1 1.4-.5 0-1 .5-1 1.1 0 .5-1.1 3.4-2.4 6.2-1.3 2.9-3.3 7.4-4.6 10.2-1.2 2.7-3.2 7.2-4.5 10-1.2 2.7-5.3 11.7-9 20-3.7 8.2-7.7 17-8.8 19.5-1.2 2.5-2 4.8-1.9 5.2.1.5-.2.8-.7.8-.5 0-1.2 1.6-1.5 3.5-.4 1.9-1.1 3.5-1.6 3.5-.6 0-1 .4-1 1 0 .5-1.3 3.9-3 7.5-1.6 3.6-3 6.7-3 6.9 0 .2-2 4.7-4.5 10s-4.5 9.9-4.5 10.1c0 .2-1.3 3.3-3 6.8-1.6 3.6-3 7-3 7.6 0 .6-.4 1.1-.9 1.1s-1.2 1.1-1.5 2.5c-.4 1.4-2.2 5.7-4 9.5-1.9 3.9-3.2 7-2.9 7 .3 0 .1.6-.5 1.2-.6.7-2.8 5.3-5 10.3-2.2 4.9-5.1 11.6-6.6 14.7-1.4 3.1-2.6 5.9-2.6 6.1 0 .3-2.3 5.4-5.1 11.3-2.7 6-5.6 12.2-6.4 13.9-.7 1.6-1.1 3.3-.9 3.7.3.4.1.8-.4.8-.6 0-2.1 2.8-3.5 6.2-1.4 3.5-3.2 7.6-4.1 9.3-.9 1.6-1.6 3.6-1.6 4.2 0 .7-.4 1.3-.8 1.3-.5 0-.9.6-.9 1.2-.1 1.3-8.4 19.9-9.3 20.8-.3.3-.6 1.1-.8 1.9-.2 1.2-5.5 13-12.3 27.6-1.3 2.7-2.4 5.2-2.4 5.5-.3.9-3.7 8.5-7.6 16.8-2.1 4.6-3.9 8.5-3.9 8.7 0 .2-1.8 4.3-4.1 9.2-2.2 4.8-4.7 10.4-5.5 12.3-.8 1.9-1.9 4.2-2.4 5.2-2.6 4.7-4 14-3.5 23.4.5 13.3 0 11.9 19.7 55.1 1.1 2.7 2.1 5.4 2.1 6 0 .7.4 1.3.8 1.3s1.1 1 1.4 2.1c.4 1.2 2.5 6.1 4.7 10.8 2.1 4.7 4.3 9.5 4.8 10.6.5 1.1 2.2 4.9 3.8 8.5 6.2 13.6 7.1 15.7 11 24.5 2.2 4.9 5.4 12 7.1 15.8 1.7 3.7 3.1 7.2 3.1 7.7 0 .6.5 1 1.2 1 .6 0 .9.3.6.6-.5.5 4.2 11.5 13.8 32.2 1.9 4.1 3.4 7.5 3.4 7.8 0 .5 6.9 15.4 8.6 18.6.8 1.6 1.2 2.8.8 2.8-.4 0 0 .8.9 1.7.8 1 1.6 2.1 1.7 2.5 0 .4.9 2.7 1.9 5 1.7 4.1 2.7 6.3 8.8 19.8 1.4 3 3.1 6.8 3.8 8.5.7 1.6 3.1 7 5.4 11.8 2.3 4.9 4.1 9 4.1 9.2 0 .2 1.5 3.6 3.4 7.7 1.8 4 6.1 13.6 9.6 21.3 6.7 15 9.4 21.1 13.1 29 1.3 2.7 2.3 5.2 2.4 5.5 0 .3.8 2.1 1.7 4 4.8 10.4 9.2 20.1 11.1 24.5 1.1 2.7 2.3 5.2 2.6 5.5.4.3.7 1 .8 1.7.1.6 1.5 4 3.1 7.5 1.6 3.4 3.9 8.5 5.1 11.3 1.3 2.7 3.6 7.7 5.2 11s2.9 6.8 2.9 7.8c0 .9.3 1.7.8 1.7.4 0 1.6 2.1 2.6 4.8 1.1 2.6 4.2 9.4 6.9 15.2 2.6 5.8 4.9 10.7 5 11 .1.3 1.8 2.1 3.7 4 9.1 9.2 18.2 11.9 28.7 8.4 7.4-2.5 17.4-11.1 17.2-14.8-.1-.5.3-1.2.8-1.5.8-.5 6.3-11.5 6.3-12.6 0-.2 2-4.8 4.5-10.1s4.5-10.2 4.5-11c0-.8.5-1.4 1-1.4.6 0 1-.6 1-1.3 0-.6 1-3.2 2.2-5.7 1.2-2.5 2.2-4.7 2.3-5 .4-1.2 2.6-6.1 6-13.5 2-4.4 4.4-9.6 5.2-11.5.9-1.9 2.5-5.5 3.7-8 1.1-2.5 2.1-4.7 2.2-5 0-.3 1-2.5 2.1-5 5.4-12 6.7-14.9 8.8-19.5 1.3-2.8 5.6-12.2 9.5-21 3.9-8.8 8.2-18.3 9.5-21 1.2-2.8 3-6.6 3.8-8.5 5-11.4 7.9-17.8 9.2-20.1.8-1.4 1.2-2.8.9-3.1-.2-.3.2-1.1 1.1-1.8.8-.7 1.5-1.8 1.5-2.5 0-.6 3.3-8.5 7.4-17.3 4.1-8.9 7.2-16.2 6.9-16.2-.3 0-.1-.6.5-1.3.6-.7 4.4-8.5 8.3-17.3 3.9-8.7 8.1-17.9 9.2-20.4 1.2-2.5 2.2-4.7 2.2-5 .1-.3.8-1.9 1.5-3.5.7-1.7 1.4-3.6 1.6-4.4.1-.8.8-1.7 1.4-2.1.7-.4 1.1-.9 1-1.1-.3-.6 13.9-32.8 23.5-53.4 1.3-2.8 2.5-5.7 2.7-6.5.2-.8.9-2.1 1.6-2.8.7-.8 1-1.8.7-2.3-.4-.5-.1-.9.4-.9.6 0 1.1-.6 1.1-1.3 0-.7.9-2.9 2-5 1.1-2 1.7-3.7 1.4-3.7-.4 0-.2-.6.4-1.3.5-.6 5.1-10.4 10.2-21.7 5.1-11.3 10.5-23.3 12.1-26.8 1.6-3.5 2.9-6.5 2.9-6.7 0-.2 1.8-4.3 4.1-9.2 4.1-8.9 4.6-10.1 9.4-20.8 1.5-3.3 3.4-7.6 4.3-9.5.9-1.9 1.6-3.7 1.7-4 .1-.3 1.1-2.6 2.3-5.3 1.2-2.6 2.2-5.1 2.2-5.5.1-.4.9-1.5 1.7-2.5.9-.9 1.3-1.7 1-1.7-.3 0 1.1-3.7 3.2-8.3 6.1-13.1 12.3-26.8 12.6-27.7.2-.7 3.5-8 7.9-17.3 2-4.3 3.6-8 3.6-8.2 0-.2 2-4.8 4.5-10.1s4.5-10.2 4.5-10.9c0-.7.7-1.8 1.5-2.5s1.5-1.7 1.5-2.2c0-1.7 13.4-31.3 14.5-32 .5-.4.6-.8.2-.8-.4 0-.2-1 .5-2.3.7-1.2 1.3-2.4 1.3-2.7.1-.3 1.3-3 2.7-6 1.4-3 3.8-8.4 5.3-12 1.5-3.6 3.2-6.8 3.7-7.1.5-.3.9-.9.7-1.3-.1-.4 1-3.3 2.4-6.4 6.5-14.5 7.7-17.3 7.7-18.2 0-.6.5-1 1-1 .6 0 .9-.3.8-.8-.1-.8 1.3-4.5 4.2-10.7 7.2-15.4 9-19.4 9-19.8 0-.3 1.5-3.8 3.4-7.9 3.9-8.5 7.4-16.3 10.6-23.3 1.2-2.8 3.6-7.9 5.2-11.5 1.6-3.6 3.7-8.3 4.6-10.5.8-2.2 2-4.3 2.4-4.6.5-.3 1-1.6 1.1-2.7.1-1.2.5-2.2.9-2.2s.8-.6.8-1.3c0-.7 1.3-3.9 2.9-7 1.6-3.1 2.8-5.7 2.6-5.7-.2 0 .9-2.7 2.6-5.9 1.6-3.3 2.9-6.2 2.9-6.4 0-.3 1.8-4.5 4.1-9.4 5.5-11.8 7.4-16.1 9.2-20.3 4.8-11 20-44.6 21.3-47.2.8-1.5 1.4-3 1.4-3.3 0-.3 1.3-3.2 3-6.5s3-6.2 3-6.5c0-.3.6-1.8 1.4-3.3.7-1.5 2.5-5.4 3.9-8.7 1.4-3.3 3.8-8.9 5.5-12.5 4.8-10.6 5-11.5 6.7-22.2.2-1.5 0-3-.6-3.3-.6-.4-.5-1.3.1-2.4.5-1 .8-2 .6-2.2-.2-.2-.7-2.1-1-4.1-2.7-17.2-15.4-30.6-29.8-31.3-4.8-.2-6.9.2-12 2.8zM963 211.1c-1.9.5-3.9 1.1-4.5 1.2-5.2 1.5-19.5 12.6-19.5 15.2 0 .4-.6 1.6-1.3 2.4-1.8 2.2-4.8 10.3-5.2 14.3-.2 1.8-.4 3.5-.5 3.8-.3.6-.3.4.4 6.5.7 6.2 2.1 10.4 6 17.5 3.1 5.8 3.6 6.7 10.4 18.1 2.3 3.9 4.2 7.6 4.2 8 0 .5.5.9 1 .9.6 0 1 .5 1 1.1 0 .9 7.9 15.1 12.8 22.9.9 1.4 1.5 2.6 1.4 2.7 0 .1 3 5.4 6.9 11.8 3.8 6.4 6.9 12 6.9 12.4 0 .5.7 1.4 1.5 2.1.8.7 1.3 1.6 1 2-.3.5-.2 1 .3 1.2.7.3 6.4 9.9 12.3 20.5 4.7 8.6 5.4 9.8 6 10.3.3.3 1.9 3 3.6 6.1 3.3 6.1 17.7 30.9 20.2 34.9.8 1.4 1.6 2.7 1.6 3 0 .3 1 2.1 2.1 4 1.2 1.9 7 11.8 12.8 22 5.9 10.2 11.4 19.6 12.2 21 .8 1.4 1.8 3.3 2.1 4.2.3 1 .9 1.8 1.4 1.8.5 0 .9.4.9.9 0 .8 8 15 11.9 21.1.8 1.4 1.6 2.7 1.6 3 0 .3.8 1.6 1.6 3 2.1 3.2 8 13.3 10.9 18.5 2.5 4.4 3.6 6.3 16 27.8 4.7 8.1 9 15.5 9.5 16.5.9 1.6 6.3 10.8 13 22.2 1.4 2.5 2.8 5.3 3.2 6.2.3 1 .9 1.8 1.4 1.8.5 0 .9.5.9 1 0 .9 12.7 23.5 16.8 30 .9 1.4 1.7 2.7 1.7 3 0 .3 1.2 2.3 2.6 4.5 1.4 2.2 4.1 6.8 6 10.3l3.4 6.3-2.1 3.7c-1.1 2-6.5 11.3-11.9 20.7-5.4 9.3-10.5 18.1-11.2 19.5-.8 1.4-2.3 3.8-3.3 5.5-1.1 1.6-2.3 3.7-2.7 4.5-.4.8-2 3.7-3.6 6.5-3.7 6.2-6.2 10.7-9.5 16.5-1.3 2.5-2.8 4.9-3.2 5.5-.4.5-1.8 2.8-3 5-3 5.4-28.2 49.1-30.9 53.5-1.1 1.9-2.4 4.2-2.8 5-.3.8-.9 1.7-1.2 2-.3.3-1.6 2.5-2.9 5-1.2 2.5-4.7 8.5-7.7 13.5-3 4.9-5.8 9.7-6.2 10.5-.4.8-4.5 8-9.1 16s-9.6 16.5-11 19c-4.3 7.6-8.6 15.1-9.7 16.8-.6.9-3 5.3-5.4 9.7-2.5 4.4-4.7 8.2-5 8.5-.3.3-1.1 1.4-1.7 2.5-4.6 8.7-16 28.1-16.6 28.3-.5.2-.8.8-.8 1.3s-3.8 7.5-8.5 15.5c-4.7 8.1-8.5 15-8.5 15.5 0 .6-.7 1.2-1.5 1.5-.8.4-1.3 1-1 1.4.3.4-.4 1.9-1.5 3.3s-2 2.8-2 3.1c0 1-9.4 17.1-10.2 17.4-.5.2-.8.7-.8 1.2s-2.2 4.7-5 9.5c-2.7 4.8-5 9.1-5 9.6s-.3.9-.7.9c-.5 0-1.9 2.3-3.2 5-1.4 2.8-2.9 5-3.3 5-.4 0-.8.9-.8 2s-.4 2-1 2c-.5 0-1 .4-1 .9 0 1.2-6.2 11.4-7.5 12.3-.5.4-.6.8-.2.8.5 0 0 1.5-1.1 3.2-2.1 3.5-4.1 9.2-4.8 13.6-1.8 11.1 3.1 25.9 11.1 33.7 4.8 4.7 8.5 7.7 8.5 7 0-.3 1 .1 2.3.9 3.8 2.5 13.5 4.8 19 4.5 10.7-.5 21.9-5.5 28.5-12.8 3.3-3.6 14.2-21.4 14.2-23.2 0-.5.5-.9 1-.9.6 0 1-.4 1-.9 0-.4 3-6 6.6-12.2 3.7-6.3 8-13.9 9.7-16.9 1.7-3 3.4-5.7 3.9-5.8.4-.2.8-.8.8-1.3s5-9.6 11.2-20.2c6.1-10.5 11.8-20.7 12.7-22.5.8-1.7 1.9-3.2 2.3-3.2.4 0 .8-.5.8-1.1 0-.6.9-2.4 2.1-4 1.1-1.6 1.7-2.9 1.2-2.9-.4 0-.3-.4.3-.8s2.4-3.2 4.1-6.2c1.6-3 5.1-9 7.6-13.3 2.6-4.3 4.7-8.3 4.7-8.8s.4-.9.8-.9 1.3-1.2 1.9-2.7c.7-1.6 2-4.2 3-5.8 1-1.7 4.5-7.7 7.8-13.5s6.3-10.7 6.7-10.8c.4-.2.8-.9.8-1.7 0-.7.7-1.8 1.5-2.5s1.3-1.6 1-2c-.3-.4.2-1.3 1-2s1.5-1.6 1.5-2.1 1.6-3.3 3.5-6.3 3.5-5.7 3.5-6c0-.5 2.6-4.9 7.5-13.1.7-1.1 1.2-2.3 1.1-2.6-.1-.4.6-1.5 1.5-2.5.9-1.1 4.2-6.6 7.5-12.4 3.2-5.8 6.1-10.7 6.4-11 .3-.3 1.9-3.1 3.5-6.2 1.7-3.2 3.3-5.8 3.6-5.8.4 0 1-1.1 1.3-2.4.3-1.4 1.2-3.1 1.9-3.8.7-.7 2.1-2.9 3.1-4.8.9-1.9 2.3-4.4 2.9-5.5.7-1.1 3-5.2 5.2-9 2.1-3.9 4.3-7.2 4.7-7.3.4-.2.8-.8.8-1.4 0-.8 1.7-3.9 10-17.9.8-1.4 3.8-6.5 6.5-11.3 2.8-4.8 6.5-11.3 8.3-14.4 1.8-3.2 3.8-6.8 4.5-8.2.6-1.4 1.4-2.7 1.8-3 .3-.3 2.3-3.7 4.4-7.5 2.2-3.9 4.3-7.2 4.7-7.3.4-.2.8-.8.8-1.3 0-.9 4.9-9.5 12.9-22.9 1.1-1.9 2.4-4.2 2.8-5 .4-.8 3.3-5.9 6.5-11.3 3.2-5.5 5.8-10.2 5.8-10.6 0-.4 1-1.9 2.2-3.4 1.2-1.5 2.3-3.3 2.5-4 .1-.6 1.1-3.6 2.2-6.6 2.5-7.2 2.5-18.5 0-26.9-1.1-3.4-2.4-6.2-2.9-6.2-.6 0-1-.6-1-1.4 0-.8-2.9-6.4-6.5-12.5-3.6-6-6.5-11.2-6.5-11.6 0-.3-.5-1.1-1-1.8-1.2-1.3-10.3-16.6-10.9-18.2-.2-.6-.9-1.9-1.6-3-3.8-6.2-8.5-14.7-8.5-15.6 0-.5-.4-.9-.9-.9s-1.1-.8-1.4-1.8c-.4-.9-2.1-4.2-3.9-7.2-1.8-3.1-5.1-8.7-7.2-12.5-2.2-3.9-4.5-7.3-5-7.7-.6-.4-.8-.8-.4-.8s-1.4-3.5-4-7.8c-2.6-4.2-5.4-9.1-6.2-10.7-.8-1.7-1.7-3.2-2-3.5-.3-.3-1.2-1.9-2-3.5-.8-1.7-1.9-3.5-2.3-4-.5-.6-7.5-12.7-15.7-27s-15.3-26.5-15.9-27.1c-.5-.7-.7-1.5-.4-1.8.4-.3.1-.6-.5-.6-.7 0-1.2-.4-1.2-1 0-.5-2.4-5-5.4-10-3-4.9-5.1-9-4.8-9 .4 0 .2-.4-.4-.8-.6-.4-4-5.9-7.6-12.2-9-16-9.2-16.4-9.8-17-.6-.6-4.9-8.4-6.4-11.7-.6-1.3-1.4-2.3-1.8-2.3-.5 0-.8-.4-.8-.9s-2.7-5.5-6-11.1-6-10.4-6-10.7c0-.3-1.3-2.4-2.8-4.7-1.5-2.2-3.4-5.6-4.1-7.4-.7-1.7-1.7-3.2-2.1-3.2-.4 0-1-.8-1.3-1.8-.3-.9-2.1-4.2-3.9-7.4-1.8-3.1-5.1-8.7-7.2-12.5-2.2-3.7-4.3-7-4.8-7.1-.4-.2-.8-1-.8-1.8 0-.7-1.6-3.8-3.5-6.8s-3.5-6-3.5-6.6c0-.5-.4-1-1-1-.5 0-1-.5-1-1.1 0-.8-7.7-14.7-12.6-22.6-.8-1.3-1.4-2.6-1.3-2.9 0-.4-.3-1-.8-1.3-.4-.3-1.3-1.5-1.9-2.6-1-1.8-10.1-17.5-17.9-31-1.1-1.9-3.3-5.8-4.9-8.7-1.6-2.9-3.7-6.5-4.7-8-1.1-1.4-1.9-3-1.9-3.5s-2.4-3.4-5.3-6.5c-7.6-7.9-16.1-11.8-26.9-12.3-4.6-.2-9.9 0-11.8.6zM771.7 939.6c-.1.1-2.1.4-4.4.7-5.9.9-9.6 1.8-11 3-.7.5-1.3.7-1.3.3 0-.9-7.7 3.2-14.1 7.5-6.4 4.3-14 12.3-19.1 20.1-3.4 5.1-8.9 16-9.2 18.2-.1.6-.4 1.5-.7 2.1-.4.5-1 2.3-1.4 4-4.5 17-5 32.9-1.6 50 1.7 8.4 7.8 24.5 9.3 24.5.5 0 .8.7.8 1.5 0 3.1 12.7 18.2 20.3 24.3 5.5 4.3 15.2 8.7 23.8 10.9 5.2 1.3 18.9 1.1 25-.3 6.1-1.4 17.9-6.7 21.4-9.6 1-.7 4-3.4 6.7-6.1 2.8-2.6 5.5-4.7 5.9-4.7.5 0 .9-.6.9-1.3 0-.7 1-2.3 2.3-3.7 2.1-2.3 8.1-11.8 8.2-13 .1-.3.8-1.9 1.7-3.5 1.6-3 6.2-17.5 7.3-23 1.2-6.1 1.2-27.1-.1-34-1.6-8.9-2-10.3-3.4-14-.6-1.7-1.1-3-1-3 .4 0-2.5-6.6-4.9-11.5-10.9-21.5-30.1-36.2-50.3-38.6-5.7-.7-10.8-1.1-11.1-.8z"/></svg>